# xmcd CD database file
#
# Track frame offsets:
#	150
#	13584
#	27882
#	42591
#	58414
#	73272
#	99249
#	112398
#	128862
#	143652
#	161893
#
# Disc length: 2364 seconds
#
# Revision: 0
# Processed by: cddbd v1.5.2PL0 Copyright (c) Steve Scherf et al.
# Submitted via: CDex 1.70beta2
#
DISCID=a5093a0b
DTITLE=Hanna Ruuskanen - Kemijoki
DYEAR=2009
DGENRE=Kotimainen
TTITLE0=Kajakki
TTITLE1=Paljailla varpailla
TTITLE2=J‰‰meren kultaa
TTITLE3=Huomaamatta
TTITLE4=Sanotaan
TTITLE5=Karhunlankaa
TTITLE6=Takapihalla
TTITLE7=Onni
TTITLE8=Kuuletko sadan lapsen nukkuvan
TTITLE9=Kemijoki
TTITLE10=Mun syd‰n kuuluu sulle
EXTD=YEAR: 2009
EXTT0=
EXTT1=
EXTT2=
EXTT3=
EXTT4=
EXTT5=
EXTT6=
EXTT7=
EXTT8=
EXTT9=
EXTT10=
PLAYORDER=
